<svg xmlns="http://www.w3.org/2000/svg" version="1.1" xmlns:xlink="http://www.w3.org/1999/xlink" xmlns:svgjs="http://svgjs.dev/svgjs" width="53.87" height="43.61" viewBox="0 0 1500 1070"><g transform="matrix(1,0,0,1,-0.8702183725667965,0.43319838056675053)"><svg viewBox="0 0 346 247" data-background-color="#ffffff" preserveAspectRatio="xMidYMid meet" height="1070" width="1500" xmlns="http://www.w3.org/2000/svg" xmlns:xlink="http://www.w3.org/1999/xlink"><g id="tight-bounds" transform="matrix(1,0,0,1,0.20073037127207272,-0.0999999999999801)"><svg viewBox="0 0 345.59853925745585 247.19999999999996" height="247.19999999999996" width="345.59853925745585"><g><svg viewBox="0 0 345.59853925745585 247.19999999999996" height="247.19999999999996" width="345.59853925745585"><g><svg viewBox="0 0 345.59853925745585 247.19999999999996" height="247.19999999999996" width="345.59853925745585"><g id="textblocktransform"><svg viewBox="0 0 345.59853925745585 247.19999999999996" height="247.19999999999996" width="345.59853925745585" id="textblock"><g><svg viewBox="0 0 345.59853925745585 247.19999999999996" height="247.19999999999996" width="345.59853925745585"><g transform="matrix(1,0,0,1,0,0)"><svg width="345.59853925745585" viewBox="3.03 -38.28 56.07 40.11" height="247.19999999999996" data-palette-color="#3949fd"><path d="M8.13-10.23L8.13-10.23 9.5-10.21 13.21-10.21Q15.38-10.21 15.75-9.91L15.75-9.91 15.75-5.32 15.8-3.03 15.8-1.27Q15.8-0.22 15.82 0.29L15.82 0.29Q15.31 0.85 7.89 0.85L7.89 0.85 6.35 0.83 5.4 0.83Q4.2 0.83 3.59 0.85L3.59 0.85Q3.03 0.1 3.03-0.05L3.03-0.05 3.03-0.85Q3.03-5.18 3.3-9.96L3.3-9.96Q3.3-10.23 8.13-10.23ZM15.82-23.78L15.82-23.78 15.8-22.92 15.8-22.73 15.92-19.41 15.75-18.26Q15.97-17.36 15.97-16.5 15.97-15.65 15.67-15.65L15.67-15.65Q8.96-15.28 3.71-15.28L3.71-15.28 3.15-16.16Q3.13-16.65 3.13-17.5L3.13-17.5 3.13-17.99 3.17-19.7 3.17-21.17Q3.17-25.93 3.54-26.32L3.54-26.32Q4.47-26.29 6.23-26.29L6.23-26.29 7.98-26.32 9.67-26.32 12.48-26.34Q15.77-26.34 15.77-26.07L15.77-26.07Q15.82-24.56 15.82-23.78ZM37.57-38.21L38.21-38.21 38.45-38.23Q39.48-38.23 39.48-37.96L39.48-37.96Q39.11-36.33 38.62-34.96L38.62-34.96 37.91-33.08Q35.74-26.78 33.52-20.04L33.52-20.04 32.98-18.51Q32.69-17.68 30.58-11.4 28.46-5.13 27.24-1.98L27.24-1.98 26.8-0.83 26.85-0.83Q26.14 1.12 25.02 1.49L25.02 1.49Q24.44 1.68 23.51 1.71L23.51 1.71 22.46 1.71Q21.53 1.83 19.82 1.83L19.82 1.83 18.58 1.83Q18.06 0.78 17.89 0.34L17.89 0.34Q18.43-1.42 18.58-1.56L18.58-1.56 20.04-5.59Q24.31-17.33 31.39-36.04L31.39-36.04 32.22-38.16Q32.64-38.28 34.18-38.28L34.18-38.28 37.57-38.21ZM57.2-38.21L57.83-38.21 58.08-38.23Q59.1-38.23 59.1-37.96L59.1-37.96Q58.74-36.33 58.25-34.96L58.25-34.96 57.54-33.08Q55.37-26.78 53.14-20.04L53.14-20.04 52.61-18.51Q52.31-17.68 50.2-11.4 48.09-5.13 46.87-1.98L46.87-1.98 46.43-0.83 46.48-0.83Q45.77 1.12 44.65 1.49L44.65 1.49Q44.06 1.68 43.13 1.71L43.13 1.71 42.08 1.71Q41.16 1.83 39.45 1.83L39.45 1.83 38.2 1.83Q37.69 0.78 37.52 0.34L37.52 0.34Q38.06-1.42 38.2-1.56L38.2-1.56 39.67-5.59Q43.94-17.33 51.02-36.04L51.02-36.04 51.85-38.16Q52.27-38.28 53.8-38.28L53.8-38.28 57.2-38.21Z" opacity="1" transform="matrix(1,0,0,1,0,0)" fill="#3949fd" class="wordmark-text-0" data-fill-palette-color="primary" id="text-0"></path></svg></g></svg></g></svg></g></svg></g></svg></g><defs></defs></svg><rect width="345.59853925745585" height="247.19999999999996" fill="none" stroke="none" visibility="hidden"></rect></g></svg></g></svg>